<svg width="508" height="508" viewBox="0 0 508 508" fill="none" xmlns="http://www.w3.org/2000/svg">
<rect width="508" height="508" fill="transparent"/>
<circle cx="254" cy="254" r="254" fill="#222222"/>
<path d="M299.589 112.603C314.807 118.142 329.013 125.867 342.206 135.779L346.408 138.867L327.316 162.056L323.416 159.208C310.966 150.346 299.044 143.842 287.65 139.695C276.408 135.603 266.105 133.932 256.739 134.68C247.45 135.456 241.762 138.711 239.674 144.447C238.31 148.194 238.873 152.122 241.36 156.232C243.925 160.37 247.675 164.463 252.61 168.511C257.573 172.482 263.11 176.662 269.22 181.051C275.406 185.468 281.482 190.191 287.446 195.22C293.41 200.248 298.623 205.437 303.085 210.785C307.547 216.133 310.535 222.2 312.049 228.986C313.667 235.724 313.181 242.649 310.593 249.761C308.923 254.349 306.464 258.607 303.216 262.534C300.072 266.413 295.833 269.85 290.5 272.845C285.242 275.868 279.262 278.021 272.559 279.306C265.961 280.541 258.042 280.647 248.802 279.622C239.666 278.549 229.86 276.105 219.383 272.292C208.906 268.479 199.81 264.085 192.094 259.112C184.406 254.062 176.526 247.99 168.456 240.896L164.797 237.745L184.651 213.534L188.498 216.883C205.34 230.808 220.032 240.052 232.574 244.617C244.351 248.903 254.525 250.571 263.099 249.621C271.748 248.699 277.144 245.294 279.288 239.406C280.484 236.117 280.447 232.77 279.176 229.362C277.905 225.955 275.715 222.69 272.608 219.567C269.529 216.368 265.821 213.113 261.483 209.802C257.222 206.519 252.68 203.177 247.855 199.776C243.031 196.375 238.249 192.859 233.508 189.228C228.767 185.597 224.381 181.706 220.35 177.554C216.395 173.43 213.087 169.194 210.425 164.848C207.763 160.502 206.131 155.707 205.527 150.465C204.952 145.146 205.666 139.733 207.67 134.227C212.68 120.462 223.613 111.364 240.468 106.933C257.399 102.53 277.106 104.42 299.589 112.603Z" fill="#C0C0C0"/>
<path d="M106.018 332.99C109.257 332.99 112.455 333.47 115.612 334.431L116.613 334.724L114.611 340.388L113.684 340.119C110.738 339.305 108.052 338.898 105.627 338.898C103.235 338.898 101.184 339.289 99.4748 340.07C97.7821 340.852 96.9357 341.853 96.9357 343.073C96.9357 343.871 97.3101 344.571 98.0588 345.173C98.8237 345.775 99.8084 346.288 101.013 346.711C102.217 347.118 103.544 347.525 104.992 347.932C106.457 348.339 107.922 348.811 109.387 349.348C110.852 349.885 112.186 350.503 113.391 351.203C114.595 351.903 115.572 352.839 116.32 354.011C117.085 355.166 117.468 356.501 117.468 358.015C117.468 358.991 117.297 359.96 116.955 360.92C116.63 361.864 116.068 362.8 115.271 363.728C114.489 364.655 113.513 365.469 112.341 366.169C111.185 366.853 109.704 367.414 107.898 367.854C106.107 368.277 104.097 368.488 101.867 368.488C99.6375 368.488 97.6274 368.285 95.8371 367.878C94.0467 367.455 92.1506 366.853 90.1486 366.071L89.2453 365.729L91.3205 359.821L92.2726 360.188C96.3905 361.652 99.784 362.385 102.453 362.385C104.96 362.385 106.986 362.002 108.532 361.237C110.095 360.472 110.876 359.463 110.876 358.21C110.876 357.51 110.64 356.883 110.168 356.33C109.696 355.777 109.061 355.313 108.264 354.938C107.466 354.548 106.547 354.19 105.505 353.864C104.48 353.539 103.397 353.221 102.258 352.912C101.119 352.603 99.9793 352.269 98.84 351.911C97.7007 351.553 96.6102 351.122 95.5685 350.617C94.5431 350.113 93.6317 349.543 92.8342 348.908C92.0366 348.273 91.4019 347.484 90.9299 346.54C90.4579 345.58 90.2218 344.514 90.2218 343.342C90.2218 340.412 91.6541 337.954 94.5187 335.969C97.3996 333.983 101.233 332.99 106.018 332.99ZM142.834 368.488C133.622 368.488 128.625 365.266 127.844 358.82C127.763 358.12 127.722 357.233 127.722 356.159V355.842V333.308H133.874V355.305C133.874 356.525 133.988 357.551 134.216 358.381C134.46 359.195 134.94 359.943 135.656 360.627C137.235 362.141 139.628 362.897 142.834 362.897C145.129 362.897 147.033 362.491 148.547 361.677C150.061 360.863 151.029 359.715 151.452 358.234C151.664 357.518 151.77 356.542 151.77 355.305V333.308H157.873C157.873 338.386 157.873 342.544 157.873 345.783C157.889 349.006 157.898 351.073 157.898 351.984C157.898 352.88 157.898 353.604 157.898 354.157C157.914 354.711 157.922 355.166 157.922 355.524C157.922 356.289 157.898 356.981 157.849 357.6C157.816 358.202 157.686 358.975 157.458 359.919C157.247 360.863 156.945 361.701 156.555 362.434C156.181 363.15 155.611 363.907 154.846 364.704C154.097 365.502 153.202 366.161 152.16 366.682C151.135 367.202 149.825 367.634 148.23 367.976C146.635 368.317 144.836 368.488 142.834 368.488ZM197.033 343.244C197.033 344.351 196.895 345.409 196.618 346.418C196.358 347.411 195.935 348.371 195.349 349.299C194.779 350.227 193.99 351.057 192.981 351.789C191.988 352.521 190.808 353.091 189.441 353.498L199.914 368H191.906L182.19 354.548H176.306V368H170.153V333.308H184.924C185.656 333.308 186.324 333.332 186.926 333.381C187.544 333.413 188.285 333.511 189.148 333.674C190.027 333.82 190.8 334.024 191.467 334.284C192.151 334.545 192.85 334.927 193.567 335.432C194.299 335.936 194.901 336.53 195.373 337.214C195.861 337.881 196.26 338.736 196.57 339.777C196.879 340.803 197.033 341.958 197.033 343.244ZM176.306 338.947V348.884H181.97C182.946 348.884 183.809 348.851 184.558 348.786C185.306 348.721 186.08 348.591 186.877 348.396C187.675 348.184 188.326 347.899 188.83 347.541C189.351 347.183 189.774 346.687 190.1 346.052C190.442 345.417 190.612 344.668 190.612 343.806C190.612 340.567 188.114 338.947 183.117 338.947H176.306ZM205.603 333.308H212.658L222.863 361.384L233.044 333.308H239.734L226.306 368H219.006L205.603 333.308ZM248.23 333.308H254.382V368H248.23V333.308ZM263.659 333.308H270.715L280.92 361.384L291.101 333.308H297.79L284.362 368H277.063L263.659 333.308ZM301.867 361.872H308.996V369.001H301.867V361.872ZM325.647 338.972V347.297H342.102V352.961H325.647V368H319.47V333.308H343.567V338.972H325.647ZM369.055 368.488C359.843 368.488 354.846 365.266 354.065 358.82C353.983 358.12 353.943 357.233 353.943 356.159V355.842V333.308H360.095V355.305C360.095 356.525 360.209 357.551 360.437 358.381C360.681 359.195 361.161 359.943 361.877 360.627C363.456 362.141 365.848 362.897 369.055 362.897C371.35 362.897 373.254 362.491 374.768 361.677C376.281 360.863 377.25 359.715 377.673 358.234C377.885 357.518 377.99 356.542 377.99 355.305V333.308H384.094C384.094 338.386 384.094 342.544 384.094 345.783C384.11 349.006 384.118 351.073 384.118 351.984C384.118 352.88 384.118 353.604 384.118 354.157C384.135 354.711 384.143 355.166 384.143 355.524C384.143 356.289 384.118 356.981 384.07 357.6C384.037 358.202 383.907 358.975 383.679 359.919C383.467 360.863 383.166 361.701 382.776 362.434C382.401 363.15 381.832 363.907 381.067 364.704C380.318 365.502 379.423 366.161 378.381 366.682C377.356 367.202 376.045 367.634 374.45 367.976C372.855 368.317 371.057 368.488 369.055 368.488ZM396.374 333.308H403.161L422.522 359.968V333.308H428.674V368H421.814L402.527 341.291V368H396.374V333.308Z" fill="#C0C0C0"/>
</svg>
